<?xml version="1.0" standalone="no"?>
<!DOCTYPE svg PUBLIC "-//W3C//DTD SVG 20010904//EN"
 "http://www.w3.org/TR/2001/REC-SVG-20010904/DTD/svg10.dtd">
<svg version="1.0" xmlns="http://www.w3.org/2000/svg"
 width="192.000000pt" height="192.000000pt" viewBox="0 0 192.000000 192.000000"
 preserveAspectRatio="xMidYMid meet">

<g transform="translate(0.000000,192.000000) scale(0.100000,-0.100000)"
fill="#000000" stroke="none">
<path d="M0 960 l0 -960 960 0 960 0 0 960 0 960 -960 0 -960 0 0 -960z m1062
602 c29 -11 61 -23 70 -27 13 -5 17 0 20 22 l3 28 121 3 122 3 7 -305 c8 -342
0 -610 -21 -704 -37 -163 -146 -289 -306 -353 -40 -15 -78 -28 -85 -29 -10 0
-83 198 -83 227 0 6 17 17 38 23 91 29 145 76 177 154 l15 36 -50 -20 c-259
-102 -557 34 -652 297 -26 71 -34 201 -19 273 39 180 194 338 377 385 74 19
193 13 266 -13z"/>
<path d="M841 1319 c-59 -18 -115 -64 -145 -119 -88 -161 26 -352 209 -353
101 0 180 48 221 138 55 116 7 257 -106 315 -47 24 -133 33 -179 19z"/>
</g>
</svg>
